<svg width="25" height="25" viewBox="0 0 25 25" fill="none" xmlns="http://www.w3.org/2000/svg">
<path d="M20.75 17.8103C19.7367 17.8103 18.83 18.1717 18.1367 18.738L8.63 13.738C8.69667 13.4609 8.75 13.1838 8.75 12.8946C8.75 12.6055 8.69667 12.3284 8.63 12.0513L18.03 7.09945C18.75 7.70186 19.6967 8.07535 20.75 8.07535C22.9633 8.07535 24.75 6.46089 24.75 4.46089C24.75 2.46089 22.9633 0.846436 20.75 0.846436C18.5367 0.846436 16.75 2.46089 16.75 4.46089C16.75 4.75005 16.8033 5.02716 16.87 5.30427L7.47 10.2561C6.75 9.65367 5.80333 9.28017 4.75 9.28017C2.53667 9.28017 0.75 10.8946 0.75 12.8946C0.75 14.8946 2.53667 16.5091 4.75 16.5091C5.80333 16.5091 6.75 16.1356 7.47 15.5332L16.9633 20.5452C16.8967 20.7982 16.8567 21.0633 16.8567 21.3284C16.8567 23.2681 18.6033 24.8464 20.75 24.8464C22.8967 24.8464 24.6433 23.2681 24.6433 21.3284C24.6433 19.3886 22.8967 17.8103 20.75 17.8103ZM20.75 3.25607C21.4833 3.25607 22.0833 3.79824 22.0833 4.46089C22.0833 5.12354 21.4833 5.66571 20.75 5.66571C20.0167 5.66571 19.4167 5.12354 19.4167 4.46089C19.4167 3.79824 20.0167 3.25607 20.75 3.25607ZM4.75 14.0994C4.01667 14.0994 3.41667 13.5573 3.41667 12.8946C3.41667 12.232 4.01667 11.6898 4.75 11.6898C5.48333 11.6898 6.08333 12.232 6.08333 12.8946C6.08333 13.5573 5.48333 14.0994 4.75 14.0994ZM20.75 22.5573C20.0167 22.5573 19.4167 22.0151 19.4167 21.3525C19.4167 20.6898 20.0167 20.1476 20.75 20.1476C21.4833 20.1476 22.0833 20.6898 22.0833 21.3525C22.0833 22.0151 21.4833 22.5573 20.75 22.5573Z" fill="#3E3860" fill-opacity="0.37"/>
</svg>
