<svg width="16" height="18" viewBox="0 0 16 18" fill="none" xmlns="http://www.w3.org/2000/svg">
<path d="M7.98941 4.25562C5.55378 4.25562 3.05534 5.69822 1.08847 8.58342C1.03233 8.66668 1.00156 8.7651 1.00006 8.86625C0.998556 8.96739 1.02639 9.06673 1.08003 9.15169C2.59128 11.5726 5.05628 13.4657 7.98941 13.4657C10.8907 13.4657 13.4063 11.5668 14.9203 9.1405C14.9727 9.0572 15.0006 8.96023 15.0006 8.86116C15.0006 8.76209 14.9727 8.66512 14.9203 8.58182C13.4028 6.18335 10.8688 4.25562 7.98941 4.25562Z" stroke="#3E3860" stroke-opacity="0.47" stroke-linecap="round" stroke-linejoin="round"/>
<path d="M8 11.4191C9.38071 11.4191 10.5 10.2737 10.5 8.86074C10.5 7.44779 9.38071 6.30237 8 6.30237C6.61929 6.30237 5.5 7.44779 5.5 8.86074C5.5 10.2737 6.61929 11.4191 8 11.4191Z" stroke="#3E3860" stroke-opacity="0.47" stroke-miterlimit="10"/>
</svg>
