<svg width="32" height="32" viewBox="0 0 32 32" fill="none" xmlns="http://www.w3.org/2000/svg">
<path fill-rule="evenodd" clip-rule="evenodd" d="M10.6693 6.07044C14.2645 5.79965 17.8756 5.81749 21.4679 6.12378L23.6333 6.30778C24.4276 6.37571 25.1761 6.70872 25.7584 7.2533C26.3407 7.79787 26.723 8.52239 26.8439 9.31044L26.9799 10.2024C27.4426 13.2263 27.3993 16.3061 26.8519 19.3158C26.7215 20.0357 26.3423 20.6868 25.7806 21.1555C25.2188 21.6242 24.5102 21.8805 23.7786 21.8798H11.8106C11.5346 21.8798 11.2639 21.9478 11.0213 22.0784L5.80659 24.8811C5.6542 24.963 5.48319 25.0039 5.31025 25C5.1373 24.996 4.96835 24.9472 4.8199 24.8584C4.67144 24.7696 4.54857 24.6438 4.46327 24.4933C4.37797 24.3428 4.33317 24.1728 4.33325 23.9998V12.6438C4.3336 10.9863 4.96009 9.39011 6.08728 8.1749C7.21447 6.95969 8.75913 6.21517 10.4119 6.09044L10.6693 6.07044ZM10.6666 12.6664C10.2246 12.6664 9.80063 12.842 9.48807 13.1546C9.17551 13.4672 8.99992 13.8911 8.99992 14.3331C8.99992 14.7751 9.17551 15.1991 9.48807 15.5116C9.80063 15.8242 10.2246 15.9998 10.6666 15.9998C11.1086 15.9998 11.5325 15.8242 11.8451 15.5116C12.1577 15.1991 12.3333 14.7751 12.3333 14.3331C12.3333 13.8911 12.1577 13.4672 11.8451 13.1546C11.5325 12.842 11.1086 12.6664 10.6666 12.6664ZM15.9999 12.6664C15.5579 12.6664 15.134 12.842 14.8214 13.1546C14.5088 13.4672 14.3333 13.8911 14.3333 14.3331C14.3333 14.7751 14.5088 15.1991 14.8214 15.5116C15.134 15.8242 15.5579 15.9998 15.9999 15.9998C16.4419 15.9998 16.8659 15.8242 17.1784 15.5116C17.491 15.1991 17.6666 14.7751 17.6666 14.3331C17.6666 13.8911 17.491 13.4672 17.1784 13.1546C16.8659 12.842 16.4419 12.6664 15.9999 12.6664ZM19.6666 14.3331C19.6666 13.8911 19.8422 13.4672 20.1547 13.1546C20.4673 12.842 20.8912 12.6664 21.3333 12.6664C21.7753 12.6664 22.1992 12.842 22.5118 13.1546C22.8243 13.4672 22.9999 13.8911 22.9999 14.3331C22.9999 14.7751 22.8243 15.1991 22.5118 15.5116C22.1992 15.8242 21.7753 15.9998 21.3333 15.9998C20.8912 15.9998 20.4673 15.8242 20.1547 15.5116C19.8422 15.1991 19.6666 14.7751 19.6666 14.3331Z" fill="#FF9D00"/>
</svg>
