<svg width="15" height="16" viewBox="0 0 15 16" fill="none" xmlns="http://www.w3.org/2000/svg">
<path d="M7.33333 14.3418C8.12126 14.3418 8.90148 14.183 9.62943 13.8744C10.3574 13.5658 11.0188 13.1136 11.576 12.5434C12.1331 11.9732 12.5751 11.2964 12.8766 10.5514C13.1781 9.80645 13.3333 9.00802 13.3333 8.20169C13.3333 7.39537 13.1781 6.59693 12.8766 5.85198C12.5751 5.10704 12.1331 4.43016 11.576 3.86C11.0188 3.28984 10.3574 2.83756 9.62943 2.52899C8.90148 2.22043 8.12126 2.06161 7.33333 2.06161C5.74203 2.06161 4.21591 2.70851 3.09069 3.86C1.96547 5.01149 1.33333 6.57324 1.33333 8.20169C1.33333 9.83015 1.96547 11.3919 3.09069 12.5434C4.21591 13.6949 5.74203 14.3418 7.33333 14.3418ZM14.6667 8.20169C14.6667 12.3463 11.3833 15.7062 7.33333 15.7062C3.28333 15.7062 0 12.3463 0 8.20169C0 4.05714 3.28333 0.697144 7.33333 0.697144C11.3833 0.697144 14.6667 4.05714 14.6667 8.20169ZM9.33333 11.2131L6.66667 8.48414V3.76719H8V7.91925L10.276 10.2484L9.33333 11.2131Z" fill="#3E3860" fill-opacity="0.47"/>
</svg>
