<svg width="32" height="32" viewBox="0 0 32 32" fill="none" xmlns="http://www.w3.org/2000/svg">
<path d="M26.5306 21.333H10.5306C9.29059 21.333 8.67059 21.333 8.16125 21.469C7.483 21.6509 6.86458 22.0081 6.36816 22.5048C5.87173 23.0014 5.51481 23.62 5.33325 24.2983" stroke="#FF9D00" stroke-width="2"/>
<path d="M10.6666 9.33317H21.3333M10.6666 13.9998H17.3333M13.3333 29.3332C9.56259 29.3332 7.67592 29.3332 6.50525 28.1612C5.33325 26.9905 5.33325 25.1038 5.33325 21.3332V10.6665C5.33325 6.89584 5.33325 5.00917 6.50525 3.8385C7.67592 2.6665 9.56259 2.6665 13.3333 2.6665H18.6666C22.4373 2.6665 24.3239 2.6665 25.4946 3.8385C26.6666 5.00917 26.6666 6.89584 26.6666 10.6665M18.6666 29.3332C22.4373 29.3332 24.3239 29.3332 25.4946 28.1612C26.6666 26.9905 26.6666 25.1038 26.6666 21.3332V15.9998" stroke="#FF9D00" stroke-width="2" stroke-linecap="round"/>
</svg>
