<svg width="32" height="32" viewBox="0 0 32 32" fill="none" xmlns="http://www.w3.org/2000/svg">
<path d="M16.0001 2.6665C13.5247 2.6665 11.1507 3.64983 9.40041 5.40017C7.65007 7.15051 6.66674 9.52448 6.66674 11.9998V16.7038C6.66693 16.9107 6.619 17.1147 6.52674 17.2998L4.2374 21.8772C4.12557 22.1008 4.07277 22.3493 4.084 22.5991C4.09524 22.8489 4.17014 23.0916 4.3016 23.3043C4.43305 23.517 4.6167 23.6925 4.83509 23.8143C5.05349 23.936 5.29937 23.9999 5.5494 23.9998H26.4507C26.7008 23.9999 26.9467 23.936 27.1651 23.8143C27.3834 23.6925 27.5671 23.517 27.6985 23.3043C27.83 23.0916 27.9049 22.8489 27.9161 22.5991C27.9274 22.3493 27.8746 22.1008 27.7627 21.8772L25.4747 17.2998C25.382 17.1148 25.3336 16.9108 25.3334 16.7038V11.9998C25.3334 9.52448 24.3501 7.15051 22.5997 5.40017C20.8494 3.64983 18.4754 2.6665 16.0001 2.6665ZM16.0001 27.9998C15.1725 28.0003 14.3652 27.744 13.6894 27.2664C13.0136 26.7888 12.5026 26.1134 12.2267 25.3332H19.7734C19.4976 26.1134 18.9865 26.7888 18.3107 27.2664C17.6349 27.744 16.8276 28.0003 16.0001 27.9998Z" fill="#FF9D00"/>
</svg>
