<svg width="25" height="25" viewBox="0 0 25 25" fill="none" xmlns="http://www.w3.org/2000/svg">
<path fill-rule="evenodd" clip-rule="evenodd" d="M3.17436 9.17644C3.17436 6.83111 4.16449 4.58184 5.92694 2.92345C7.68939 1.26505 10.0798 0.333374 12.5723 0.333374C15.0647 0.333374 17.4551 1.26505 19.2176 2.92345C20.98 4.58184 21.9702 6.83111 21.9702 9.17644V13.9315L24.4163 18.5349C24.5289 18.7468 24.5821 18.9822 24.5708 19.2189C24.5595 19.4556 24.484 19.6856 24.3517 19.8871C24.2193 20.0886 24.0344 20.2549 23.8145 20.3703C23.5946 20.4856 23.347 20.5461 23.0952 20.5461H17.7733C17.4747 21.6303 16.8019 22.5905 15.8605 23.276C14.9192 23.9614 13.7626 24.3334 12.5723 24.3334C11.382 24.3334 10.2253 23.9614 9.28399 23.276C8.34263 22.5905 7.66983 21.6303 7.3712 20.5461H2.0493C1.79754 20.5461 1.54995 20.4856 1.33005 20.3703C1.11014 20.2549 0.925225 20.0886 0.792858 19.8871C0.660492 19.6856 0.585071 19.4556 0.573758 19.2189C0.562445 18.9822 0.615616 18.7468 0.728221 18.5349L3.17436 13.9315V9.17644ZM10.247 20.5461C10.4826 20.9301 10.8216 21.2491 11.2298 21.4708C11.6379 21.6925 12.101 21.8093 12.5723 21.8093C13.0436 21.8093 13.5066 21.6925 13.9148 21.4708C14.3229 21.2491 14.6619 20.9301 14.8976 20.5461H10.247ZM12.5723 2.85996C10.7919 2.85996 9.0845 3.52545 7.82561 4.71002C6.56671 5.89458 5.85948 7.5012 5.85948 9.17644V13.9315C5.85945 14.3235 5.76246 14.7102 5.5762 15.0609L4.0054 18.0195H21.1405L19.5697 15.0609C19.3829 14.7103 19.2855 14.3236 19.2851 13.9315V9.17644C19.2851 7.5012 18.5778 5.89458 17.3189 4.71002C16.06 3.52545 14.3526 2.85996 12.5723 2.85996Z" fill="#3E3860" fill-opacity="0.37"/>
</svg>
