<svg width="20" height="24" viewBox="0 0 20 24" fill="none" xmlns="http://www.w3.org/2000/svg">
<path d="M10.4 0C9.40645 0 8.60005 0.8064 8.60005 1.8V2.63438C5.49587 3.43451 3.20005 6.24576 3.20005 9.6V16.8L0.800049 19.2V20.4H8.32349C8.11218 20.7647 8.00063 21.1785 8.00005 21.6C8.00005 22.2365 8.25291 22.847 8.70299 23.2971C9.15308 23.7471 9.76353 24 10.4 24C11.0366 24 11.647 23.7471 12.0971 23.2971C12.5472 22.847 12.8 22.2365 12.8 21.6C12.7988 21.1783 12.6864 20.7644 12.4743 20.4H20V19.2L17.6 16.8V9.6C17.6 6.24576 15.3042 3.43451 12.2 2.63438V1.8C12.2 0.8064 11.3936 0 10.4 0ZM10.4 4.8C13.0472 4.8 15.2 6.9528 15.2 9.6V16.8V17.7938L15.4063 18H5.3938L5.60005 17.7938V16.8V9.6C5.60005 6.9528 7.75285 4.8 10.4 4.8Z" fill="white"/>
</svg>
